<svg width="85" height="23" viewBox="0 0 85 23" fill="none" xmlns="http://www.w3.org/2000/svg">
<path d="M25.0918 7.79102H22.2441L21.5586 10H20.4746L23.2285 1.46875H24.1367L26.8438 10H25.7656L25.0918 7.79102ZM22.5371 6.84766H24.8047L23.6797 3.14453L22.5371 6.84766ZM32.4043 10L32.3398 9.12695C32.1289 9.43945 31.8652 9.68359 31.5488 9.85938C31.2324 10.0312 30.8672 10.1172 30.4531 10.1172C30.1211 10.1172 29.8203 10.0664 29.5508 9.96484C29.2812 9.85938 29.0508 9.69727 28.8594 9.47852C28.668 9.25977 28.5195 8.98242 28.4141 8.64648C28.3125 8.30664 28.2617 7.90039 28.2617 7.42773V3.66016H29.3457V7.43945C29.3457 7.7832 29.373 8.06836 29.4277 8.29492C29.4824 8.52148 29.5645 8.70117 29.6738 8.83398C29.7832 8.9707 29.916 9.06641 30.0723 9.12109C30.2324 9.17578 30.416 9.20312 30.623 9.20312C30.8652 9.20312 31.082 9.17578 31.2734 9.12109C31.4648 9.0625 31.6309 8.98242 31.7715 8.88086C31.8887 8.79883 31.9902 8.70117 32.0762 8.58789C32.166 8.4707 32.2402 8.34375 32.2988 8.20703V3.66016H33.3887V10H32.4043ZM38 2.125V3.66016H40.4141V4.49805H38V7.94336C38 8.18945 38.0312 8.39258 38.0938 8.55273C38.1562 8.71289 38.2422 8.83984 38.3516 8.93359C38.4609 9.03125 38.5859 9.09961 38.7266 9.13867C38.8711 9.17773 39.0234 9.19727 39.1836 9.19727C39.3008 9.19727 39.4219 9.19141 39.5469 9.17969C39.6719 9.16406 39.7949 9.14648 39.916 9.12695C40.0332 9.10742 40.1426 9.08789 40.2441 9.06836C40.3496 9.04492 40.4355 9.02539 40.502 9.00977L40.6543 9.77734C40.5645 9.83203 40.4551 9.88086 40.3262 9.92383C40.1973 9.96289 40.0566 9.99609 39.9043 10.0234C39.752 10.0547 39.5898 10.0781 39.418 10.0938C39.25 10.1094 39.082 10.1172 38.9141 10.1172C38.6328 10.1172 38.3691 10.0781 38.123 10C37.8809 9.91797 37.6699 9.78906 37.4902 9.61328C37.3105 9.44141 37.168 9.21875 37.0625 8.94531C36.9609 8.66797 36.9102 8.33398 36.9102 7.94336V4.49805H35.2461V3.66016H36.9102V2.125H38ZM42.3359 6.77148C42.3359 6.31445 42.4023 5.89062 42.5352 5.5C42.668 5.10547 42.8594 4.76367 43.1094 4.47461C43.3555 4.18555 43.6562 3.95898 44.0117 3.79492C44.3672 3.62695 44.7676 3.54297 45.2129 3.54297C45.6621 3.54297 46.0645 3.62695 46.4199 3.79492C46.7793 3.95898 47.084 4.18555 47.334 4.47461C47.5801 4.76367 47.7695 5.10547 47.9023 5.5C48.0352 5.89062 48.1016 6.31445 48.1016 6.77148V6.90039C48.1016 7.35742 48.0352 7.78125 47.9023 8.17188C47.7695 8.5625 47.5801 8.90234 47.334 9.19141C47.084 9.48047 46.7812 9.70703 46.4258 9.87109C46.0703 10.0352 45.6699 10.1172 45.2246 10.1172C44.7754 10.1172 44.3711 10.0352 44.0117 9.87109C43.6562 9.70703 43.3555 9.48047 43.1094 9.19141C42.8594 8.90234 42.668 8.5625 42.5352 8.17188C42.4023 7.78125 42.3359 7.35742 42.3359 6.90039V6.77148ZM43.4199 6.90039C43.4199 7.21289 43.457 7.51172 43.5312 7.79688C43.6055 8.07812 43.7188 8.32617 43.8711 8.54102C44.0195 8.75586 44.207 8.92578 44.4336 9.05078C44.6602 9.17578 44.9238 9.23828 45.2246 9.23828C45.5215 9.23828 45.7812 9.17578 46.0039 9.05078C46.2305 8.92578 46.4199 8.75586 46.5723 8.54102C46.7207 8.32617 46.832 8.07812 46.9062 7.79688C46.9805 7.51172 47.0176 7.21289 47.0176 6.90039V6.77148C47.0176 6.46289 46.9785 6.16797 46.9004 5.88672C46.8262 5.60156 46.7148 5.35156 46.5664 5.13672C46.4141 4.92188 46.2246 4.75195 45.998 4.62695C45.7754 4.49805 45.5137 4.43359 45.2129 4.43359C44.9121 4.43359 44.6504 4.49805 44.4277 4.62695C44.2051 4.75195 44.0195 4.92188 43.8711 5.13672C43.7188 5.35156 43.6055 5.60156 43.5312 5.88672C43.457 6.16797 43.4199 6.46289 43.4199 6.77148V6.90039ZM50.3457 3.66016L50.375 4.25781C50.5039 4.03516 50.6719 3.86133 50.8789 3.73633C51.0898 3.61133 51.3438 3.54688 51.6406 3.54297C51.8086 3.54297 51.959 3.5625 52.0918 3.60156C52.2285 3.63672 52.3477 3.68945 52.4492 3.75977C52.5234 3.81445 52.5898 3.88086 52.6484 3.95898C52.7109 4.03711 52.7637 4.125 52.8066 4.22266C52.8613 4.13281 52.9258 4.04883 53 3.9707C53.0742 3.89258 53.1543 3.82422 53.2402 3.76562C53.3496 3.69922 53.4707 3.64648 53.6035 3.60742C53.7402 3.56836 53.8887 3.54688 54.0488 3.54297C54.2676 3.54297 54.4648 3.57617 54.6406 3.64258C54.8164 3.70508 54.9648 3.79883 55.0859 3.92383C55.2188 4.06445 55.3203 4.24805 55.3906 4.47461C55.4609 4.69727 55.4961 4.96094 55.4961 5.26562V10H54.4648V5.25391C54.4648 5.12109 54.4492 5.00391 54.418 4.90234C54.3867 4.80078 54.3418 4.7168 54.2832 4.65039C54.2207 4.58789 54.1426 4.54102 54.0488 4.50977C53.959 4.47852 53.8535 4.46289 53.7324 4.46289C53.6035 4.46289 53.4922 4.48047 53.3984 4.51562C53.3047 4.55078 53.2266 4.59766 53.1641 4.65625C53.1016 4.71875 53.0527 4.79102 53.0176 4.87305C52.9824 4.95117 52.959 5.03906 52.9473 5.13672C52.9473 5.15625 52.9473 5.17578 52.9473 5.19531C52.9473 5.21094 52.9473 5.23047 52.9473 5.25391V10H51.916V5.24805C51.916 5.11523 51.9004 4.99805 51.8691 4.89648C51.8418 4.79492 51.7969 4.71094 51.7344 4.64453C51.6758 4.58203 51.6016 4.53711 51.5117 4.50977C51.4258 4.47852 51.3242 4.46289 51.207 4.46289C51.0781 4.46289 50.9648 4.47852 50.8672 4.50977C50.7734 4.53711 50.6934 4.57812 50.627 4.63281C50.5762 4.67578 50.5312 4.72461 50.4922 4.7793C50.457 4.83398 50.4277 4.89258 50.4043 4.95508V10H49.373V3.66016H50.3457ZM61.2207 10C61.1777 9.91797 61.1426 9.81641 61.1152 9.69531C61.0918 9.57031 61.0742 9.44141 61.0625 9.30859C60.9531 9.41797 60.8301 9.52148 60.6934 9.61914C60.5605 9.7168 60.4141 9.80273 60.2539 9.87695C60.0898 9.95117 59.916 10.0098 59.7324 10.0527C59.5488 10.0957 59.3535 10.1172 59.1465 10.1172C58.8105 10.1172 58.5059 10.0684 58.2324 9.9707C57.9629 9.87305 57.7344 9.74023 57.5469 9.57227C57.3555 9.4082 57.207 9.21289 57.1016 8.98633C57 8.75586 56.9492 8.50781 56.9492 8.24219C56.9492 7.89453 57.0176 7.58984 57.1543 7.32812C57.2949 7.06641 57.4922 6.84766 57.7461 6.67188C58 6.5 58.3047 6.37109 58.6602 6.28516C59.0195 6.19922 59.4199 6.15625 59.8613 6.15625H61.0449V5.6582C61.0449 5.4668 61.0098 5.29492 60.9395 5.14258C60.8691 4.99023 60.7695 4.85938 60.6406 4.75C60.5117 4.64453 60.3535 4.5625 60.166 4.50391C59.9824 4.44531 59.7754 4.41602 59.5449 4.41602C59.3301 4.41602 59.1367 4.44336 58.9648 4.49805C58.7969 4.55273 58.6543 4.625 58.5371 4.71484C58.4199 4.80469 58.3281 4.91211 58.2617 5.03711C58.1992 5.1582 58.168 5.28516 58.168 5.41797H57.0781C57.082 5.1875 57.1406 4.96094 57.2539 4.73828C57.3711 4.51562 57.5391 4.31445 57.7578 4.13477C57.9727 3.95898 58.2344 3.81641 58.543 3.70703C58.8555 3.59766 59.209 3.54297 59.6035 3.54297C59.9629 3.54297 60.2969 3.58789 60.6055 3.67773C60.9141 3.76367 61.1816 3.89453 61.4082 4.07031C61.6309 4.25 61.8066 4.47266 61.9355 4.73828C62.0645 5.00391 62.1289 5.31445 62.1289 5.66992V8.61719C62.1289 8.82812 62.1484 9.05273 62.1875 9.29102C62.2266 9.52539 62.2812 9.73047 62.3516 9.90625V10H61.2207ZM59.3047 9.17383C59.5156 9.17383 59.7129 9.14648 59.8965 9.0918C60.0801 9.03711 60.248 8.96484 60.4004 8.875C60.5488 8.78516 60.6777 8.68359 60.7871 8.57031C60.8965 8.45312 60.9824 8.33203 61.0449 8.20703V6.92383H60.0371C59.6621 6.92383 59.334 6.95703 59.0527 7.02344C58.7754 7.08594 58.5547 7.18359 58.3906 7.31641C58.2734 7.41016 58.1836 7.52148 58.1211 7.65039C58.0625 7.7793 58.0332 7.92578 58.0332 8.08984C58.0332 8.24609 58.0586 8.39062 58.1094 8.52344C58.1641 8.65625 58.2441 8.76953 58.3496 8.86328C58.4551 8.96094 58.5879 9.03711 58.748 9.0918C58.9082 9.14648 59.0938 9.17383 59.3047 9.17383ZM66.8281 2.125V3.66016H69.2422V4.49805H66.8281V7.94336C66.8281 8.18945 66.8594 8.39258 66.9219 8.55273C66.9844 8.71289 67.0703 8.83984 67.1797 8.93359C67.2891 9.03125 67.4141 9.09961 67.5547 9.13867C67.6992 9.17773 67.8516 9.19727 68.0117 9.19727C68.1289 9.19727 68.25 9.19141 68.375 9.17969C68.5 9.16406 68.623 9.14648 68.7441 9.12695C68.8613 9.10742 68.9707 9.08789 69.0723 9.06836C69.1777 9.04492 69.2637 9.02539 69.3301 9.00977L69.4824 9.77734C69.3926 9.83203 69.2832 9.88086 69.1543 9.92383C69.0254 9.96289 68.8848 9.99609 68.7324 10.0234C68.5801 10.0547 68.418 10.0781 68.2461 10.0938C68.0781 10.1094 67.9102 10.1172 67.7422 10.1172C67.4609 10.1172 67.1973 10.0781 66.9512 10C66.709 9.91797 66.498 9.78906 66.3184 9.61328C66.1387 9.44141 65.9961 9.21875 65.8906 8.94531C65.7891 8.66797 65.7383 8.33398 65.7383 7.94336V4.49805H64.0742V3.66016H65.7383V2.125H66.8281ZM74.2695 10.1172C73.8242 10.1172 73.4141 10.041 73.0391 9.88867C72.668 9.73633 72.3496 9.52344 72.084 9.25C71.8184 8.97656 71.6113 8.65234 71.4629 8.27734C71.3145 7.90234 71.2402 7.49414 71.2402 7.05273V6.80664C71.2402 6.29492 71.3223 5.83789 71.4863 5.43555C71.6504 5.0293 71.8691 4.68555 72.1426 4.4043C72.4121 4.12695 72.7188 3.91406 73.0625 3.76562C73.4102 3.61719 73.7656 3.54297 74.1289 3.54297C74.5859 3.54297 74.9844 3.62305 75.3242 3.7832C75.668 3.93945 75.9531 4.15625 76.1797 4.43359C76.4062 4.71484 76.5742 5.04492 76.6836 5.42383C76.7969 5.80273 76.8535 6.21289 76.8535 6.6543V7.14062H72.3242V7.18164C72.3516 7.49023 72.4121 7.76172 72.5059 7.99609C72.6035 8.23047 72.7363 8.4375 72.9043 8.61719C73.0762 8.80859 73.2832 8.95898 73.5254 9.06836C73.7676 9.17773 74.0352 9.23242 74.3281 9.23242C74.7148 9.23242 75.0586 9.1543 75.3594 8.99805C75.6602 8.8418 75.9102 8.63477 76.1094 8.37695L76.7715 8.89258C76.5605 9.21289 76.2441 9.49805 75.8223 9.74805C75.4043 9.99414 74.8867 10.1172 74.2695 10.1172ZM74.1289 4.43359C73.9102 4.43359 73.7031 4.47461 73.5078 4.55664C73.3125 4.63477 73.1367 4.75 72.9805 4.90234C72.8242 5.05859 72.6914 5.25 72.582 5.47656C72.4766 5.69922 72.4023 5.95703 72.3594 6.25H75.7695V6.19727C75.7695 6.00195 75.7324 5.79297 75.6582 5.57031C75.584 5.34375 75.4805 5.14844 75.3477 4.98438C75.2148 4.82031 75.0469 4.6875 74.8438 4.58594C74.6445 4.48438 74.4062 4.43359 74.1289 4.43359Z" fill="black"/>
<path d="M21.0195 11.4688H26.1758V12.4121H24.1309V19.0625H26.1758V20H21.0195V19.0625H23.0176V12.4121H21.0195V11.4688ZM28.2266 20V13.6602H29.1992L29.2754 14.5977C29.3691 14.4648 29.4707 14.3438 29.5801 14.2344C29.6934 14.1211 29.8125 14.0234 29.9375 13.9414C30.125 13.8164 30.3281 13.7207 30.5469 13.6543C30.7695 13.584 31.0039 13.5469 31.25 13.543C31.582 13.543 31.8828 13.5898 32.1523 13.6836C32.4258 13.7773 32.6582 13.9238 32.8496 14.123C33.041 14.3223 33.1875 14.5762 33.2891 14.8848C33.3945 15.1895 33.4473 15.5527 33.4473 15.9746V20H32.3633V15.998C32.3633 15.7168 32.332 15.4785 32.2695 15.2832C32.207 15.0879 32.1152 14.9297 31.9941 14.8086C31.8691 14.6875 31.7168 14.5996 31.5371 14.5449C31.3613 14.4902 31.1582 14.4629 30.9277 14.4629C30.7285 14.4629 30.543 14.4922 30.3711 14.5508C30.1992 14.6055 30.041 14.6816 29.8965 14.7793C29.7793 14.8652 29.6699 14.9648 29.5684 15.0781C29.4707 15.1914 29.3848 15.3164 29.3105 15.4531V20H28.2266ZM37.5957 20L34.9883 13.6602H36.1016L37.918 18.4414L38.0176 18.834L38.123 18.4414L39.8984 13.6602H41.0059L38.4219 20H37.5957ZM45.4414 20.1172C44.9961 20.1172 44.5859 20.041 44.2109 19.8887C43.8398 19.7363 43.5215 19.5234 43.2559 19.25C42.9902 18.9766 42.7832 18.6523 42.6348 18.2773C42.4863 17.9023 42.4121 17.4941 42.4121 17.0527V16.8066C42.4121 16.2949 42.4941 15.8379 42.6582 15.4355C42.8223 15.0293 43.041 14.6855 43.3145 14.4043C43.584 14.127 43.8906 13.9141 44.2344 13.7656C44.582 13.6172 44.9375 13.543 45.3008 13.543C45.7578 13.543 46.1562 13.623 46.4961 13.7832C46.8398 13.9395 47.125 14.1562 47.3516 14.4336C47.5781 14.7148 47.7461 15.0449 47.8555 15.4238C47.9688 15.8027 48.0254 16.2129 48.0254 16.6543V17.1406H43.4961V17.1816C43.5234 17.4902 43.584 17.7617 43.6777 17.9961C43.7754 18.2305 43.9082 18.4375 44.0762 18.6172C44.248 18.8086 44.4551 18.959 44.6973 19.0684C44.9395 19.1777 45.207 19.2324 45.5 19.2324C45.8867 19.2324 46.2305 19.1543 46.5312 18.998C46.832 18.8418 47.082 18.6348 47.2812 18.377L47.9434 18.8926C47.7324 19.2129 47.416 19.498 46.9941 19.748C46.5762 19.9941 46.0586 20.1172 45.4414 20.1172ZM45.3008 14.4336C45.082 14.4336 44.875 14.4746 44.6797 14.5566C44.4844 14.6348 44.3086 14.75 44.1523 14.9023C43.9961 15.0586 43.8633 15.25 43.7539 15.4766C43.6484 15.6992 43.5742 15.957 43.5312 16.25H46.9414V16.1973C46.9414 16.002 46.9043 15.793 46.8301 15.5703C46.7559 15.3438 46.6523 15.1484 46.5195 14.9844C46.3867 14.8203 46.2188 14.6875 46.0156 14.5859C45.8164 14.4844 45.5781 14.4336 45.3008 14.4336ZM49.8477 20V13.6602H50.8203L50.8965 14.5977C50.9902 14.4648 51.0918 14.3438 51.2012 14.2344C51.3145 14.1211 51.4336 14.0234 51.5586 13.9414C51.7461 13.8164 51.9492 13.7207 52.168 13.6543C52.3906 13.584 52.625 13.5469 52.8711 13.543C53.2031 13.543 53.5039 13.5898 53.7734 13.6836C54.0469 13.7773 54.2793 13.9238 54.4707 14.123C54.6621 14.3223 54.8086 14.5762 54.9102 14.8848C55.0156 15.1895 55.0684 15.5527 55.0684 15.9746V20H53.9844V15.998C53.9844 15.7168 53.9531 15.4785 53.8906 15.2832C53.8281 15.0879 53.7363 14.9297 53.6152 14.8086C53.4902 14.6875 53.3379 14.5996 53.1582 14.5449C52.9824 14.4902 52.7793 14.4629 52.5488 14.4629C52.3496 14.4629 52.1641 14.4922 51.9922 14.5508C51.8203 14.6055 51.6621 14.6816 51.5176 14.7793C51.4004 14.8652 51.291 14.9648 51.1895 15.0781C51.0918 15.1914 51.0059 15.3164 50.9316 15.4531V20H49.8477ZM59.6211 12.125V13.6602H62.0352V14.498H59.6211V17.9434C59.6211 18.1895 59.6523 18.3926 59.7148 18.5527C59.7773 18.7129 59.8633 18.8398 59.9727 18.9336C60.082 19.0312 60.207 19.0996 60.3477 19.1387C60.4922 19.1777 60.6445 19.1973 60.8047 19.1973C60.9219 19.1973 61.043 19.1914 61.168 19.1797C61.293 19.1641 61.416 19.1465 61.5371 19.127C61.6543 19.1074 61.7637 19.0879 61.8652 19.0684C61.9707 19.0449 62.0566 19.0254 62.123 19.0098L62.2754 19.7773C62.1855 19.832 62.0762 19.8809 61.9473 19.9238C61.8184 19.9629 61.6777 19.9961 61.5254 20.0234C61.373 20.0547 61.2109 20.0781 61.0391 20.0938C60.8711 20.1094 60.7031 20.1172 60.5352 20.1172C60.2539 20.1172 59.9902 20.0781 59.7441 20C59.502 19.918 59.291 19.7891 59.1113 19.6133C58.9316 19.4414 58.7891 19.2188 58.6836 18.9453C58.582 18.668 58.5312 18.334 58.5312 17.9434V14.498H56.8672V13.6602H58.5312V12.125H59.6211ZM63.957 16.7715C63.957 16.3145 64.0234 15.8906 64.1562 15.5C64.2891 15.1055 64.4805 14.7637 64.7305 14.4746C64.9766 14.1855 65.2773 13.959 65.6328 13.7949C65.9883 13.627 66.3887 13.543 66.834 13.543C67.2832 13.543 67.6855 13.627 68.041 13.7949C68.4004 13.959 68.7051 14.1855 68.9551 14.4746C69.2012 14.7637 69.3906 15.1055 69.5234 15.5C69.6562 15.8906 69.7227 16.3145 69.7227 16.7715V16.9004C69.7227 17.3574 69.6562 17.7812 69.5234 18.1719C69.3906 18.5625 69.2012 18.9023 68.9551 19.1914C68.7051 19.4805 68.4023 19.707 68.0469 19.8711C67.6914 20.0352 67.291 20.1172 66.8457 20.1172C66.3965 20.1172 65.9922 20.0352 65.6328 19.8711C65.2773 19.707 64.9766 19.4805 64.7305 19.1914C64.4805 18.9023 64.2891 18.5625 64.1562 18.1719C64.0234 17.7812 63.957 17.3574 63.957 16.9004V16.7715ZM65.041 16.9004C65.041 17.2129 65.0781 17.5117 65.1523 17.7969C65.2266 18.0781 65.3398 18.3262 65.4922 18.541C65.6406 18.7559 65.8281 18.9258 66.0547 19.0508C66.2812 19.1758 66.5449 19.2383 66.8457 19.2383C67.1426 19.2383 67.4023 19.1758 67.625 19.0508C67.8516 18.9258 68.041 18.7559 68.1934 18.541C68.3418 18.3262 68.4531 18.0781 68.5273 17.7969C68.6016 17.5117 68.6387 17.2129 68.6387 16.9004V16.7715C68.6387 16.4629 68.5996 16.168 68.5215 15.8867C68.4473 15.6016 68.3359 15.3516 68.1875 15.1367C68.0352 14.9219 67.8457 14.752 67.6191 14.627C67.3965 14.498 67.1348 14.4336 66.834 14.4336C66.5332 14.4336 66.2715 14.498 66.0488 14.627C65.8262 14.752 65.6406 14.9219 65.4922 15.1367C65.3398 15.3516 65.2266 15.6016 65.1523 15.8867C65.0781 16.168 65.041 16.4629 65.041 16.7715V16.9004ZM75.623 13.543C75.8223 13.543 76.0293 13.5566 76.2441 13.584C76.4629 13.6113 76.627 13.6484 76.7363 13.6953L76.5898 14.7559C76.3789 14.709 76.1777 14.6758 75.9863 14.6562C75.7988 14.6328 75.6016 14.6211 75.3945 14.6211C75.1289 14.6211 74.8887 14.6543 74.6738 14.7207C74.459 14.7832 74.2715 14.877 74.1113 15.002C73.9668 15.1113 73.8398 15.2461 73.7305 15.4062C73.625 15.5625 73.5371 15.7383 73.4668 15.9336V20H72.377V13.6602H73.4082L73.4551 14.5098L73.4609 14.668C73.7188 14.3203 74.0273 14.0469 74.3867 13.8477C74.75 13.6445 75.1621 13.543 75.623 13.543ZM79.1855 22.5605C79.084 22.5605 78.9648 22.5488 78.8281 22.5254C78.6914 22.502 78.5879 22.4824 78.5176 22.4668L78.6934 21.582C78.791 21.5898 78.8867 21.5957 78.9805 21.5996C79.0781 21.6074 79.1543 21.6113 79.209 21.6113C79.3574 21.6113 79.4922 21.5703 79.6133 21.4883C79.7383 21.4062 79.8496 21.3086 79.9473 21.1953C80.041 21.082 80.1211 20.9648 80.1875 20.8438C80.2578 20.7227 80.3125 20.623 80.3516 20.5449L80.7852 19.7012L78.0547 13.6602H79.2676L81.0078 17.75L81.2891 18.5176L81.5879 17.7734L83.2227 13.6602H84.4355L81.2188 20.9785C81.1445 21.1426 81.0488 21.3164 80.9316 21.5C80.8184 21.6836 80.6797 21.8535 80.5156 22.0098C80.3516 22.166 80.1602 22.2969 79.9414 22.4023C79.7227 22.5078 79.4707 22.5605 79.1855 22.5605Z" fill="black"/>
<rect x="15" y="17" width="3" height="3" rx="1" fill="#D9D9D9"/>
<rect x="10" y="17" width="3" height="3" rx="1" fill="#D9D9D9"/>
<rect x="5" y="17" width="3" height="3" rx="1" fill="#D9D9D9"/>
<rect y="17" width="3" height="3" rx="1" fill="#D9D9D9"/>
<rect x="5" y="7" width="3" height="3" rx="1" fill="#D9D9D9"/>
<rect y="7" width="3" height="3" rx="1" fill="#D9D9D9"/>
<rect x="10" y="7" width="3" height="3" rx="1" fill="#D9D9D9"/>
<rect x="15" y="12" width="3" height="3" rx="1" fill="#D9D9D9"/>
<rect x="10" y="12" width="3" height="3" rx="1" fill="#D9D9D9"/>
<rect x="5" y="12" width="3" height="3" rx="1" fill="#D9D9D9"/>
<rect y="12" width="3" height="3" rx="1" fill="#D9D9D9"/>
<rect x="5" y="2" width="3" height="3" rx="1" fill="#D9D9D9"/>
<rect y="2" width="3" height="3" rx="1" fill="#D9D9D9"/>
<rect x="10" y="2" width="3" height="3" rx="1" fill="#D9D9D9"/>
<rect x="15" y="2" width="3" height="3" rx="1" fill="#D9D9D9"/>
<rect x="15" y="7" width="3" height="3" rx="1" fill="#D9D9D9"/>
</svg>
